<?xml version="1.0" standalone="no"?>
<!DOCTYPE svg PUBLIC "-//W3C//DTD SVG 20010904//EN"
 "http://www.w3.org/TR/2001/REC-SVG-20010904/DTD/svg10.dtd">
<svg version="1.0" xmlns="http://www.w3.org/2000/svg"
 width="1024.000000pt" height="1024.000000pt" viewBox="0 0 1024.000000 1024.000000"
 preserveAspectRatio="xMidYMid meet">
<metadata>
Created by potrace 1.16, written by Peter Selinger 2001-2019
</metadata>
<g transform="translate(0.000000,1024.000000) scale(0.100000,-0.100000)"
fill="#000000" stroke="none">
<path d="M5009 8939 c-536 -57 -939 -502 -939 -1039 0 -409 229 -769 601 -944
340 -161 744 -128 1060 84 82 56 213 187 269 269 59 89 124 230 151 331 20 73
23 109 23 260 0 204 -15 281 -88 436 -59 125 -115 205 -210 300 -177 176 -391
277 -646 304 -106 11 -113 11 -221 -1z"/>
<path d="M4835 6329 c-327 -29 -722 -126 -1131 -279 l-141 -53 -724 -1155
c-398 -635 -725 -1159 -726 -1166 -2 -6 93 -229 210 -496 l213 -485 293 -3
293 -2 -6 22 c-45 159 -68 505 -47 697 88 802 632 1474 1405 1733 152 51 294
79 477 96 161 14 192 14 350 0 264 -24 486 -84 714 -192 632 -300 1069 -897
1160 -1585 28 -205 15 -504 -29 -694 -9 -38 -16 -70 -16 -73 0 -2 132 -4 293
-4 l292 1 214 491 c191 438 213 493 201 512 -7 11 -334 535 -728 1162 l-715
1141 -176 66 c-400 148 -775 238 -1116 267 -140 11 -417 11 -560 -1z"/>
<path d="M4930 5129 c-816 -78 -1508 -669 -1703 -1454 -46 -183 -52 -240 -52
-475 0 -235 6 -292 52 -475 147 -594 589 -1094 1169 -1323 234 -93 451 -134
719 -135 212 -1 333 14 524 64 689 181 1235 741 1396 1434 46 198 59 500 30
704 -147 1032 -1085 1761 -2135 1660z m647 -413 c265 -79 494 -216 688 -412
238 -240 399 -564 444 -897 14 -101 14 -314 0 -414 -13 -95 -60 -283 -85 -341
l-19 -42 -539 308 -538 308 -22 74 c-24 83 -68 155 -121 197 l-35 28 0 621 0
622 74 -14 c40 -8 109 -25 153 -38z m-677 -573 l0 -618 -35 -28 c-53 -42 -97
-114 -121 -197 l-22 -74 -538 -308 c-296 -169 -539 -306 -541 -304 -11 11 -66
192 -85 279 -19 87 -22 133 -23 307 0 178 3 218 23 308 32 143 65 240 123 362
183 383 510 677 914 820 96 34 232 68 278 69 l27 1 0 -617z m225 -1332 c42 0
91 7 122 18 l52 18 533 -304 c293 -167 536 -308 541 -312 10 -10 -94 -127
-185 -207 -210 -186 -467 -313 -758 -375 -89 -20 -135 -23 -305 -23 -170 0
-216 3 -305 23 -333 71 -587 208 -825 444 -128 127 -130 129 -108 144 12 8
257 149 543 312 l522 297 51 -18 c31 -10 81 -17 122 -17z"/>
</g>
</svg>
